<svg width="24" height="24" viewBox="0 0 24 24" fill="none" xmlns="http://www.w3.org/2000/svg">
<path fill-rule="evenodd" clip-rule="evenodd" d="M8.06299 19H4.33771C3.59891 19 3 18.4011 3 17.6623V16.7893C3 16.2839 3.20077 15.7992 3.55814 15.4419C4.48135 14.5187 5 13.2665 5 11.9609V9C5 5.13401 8.13401 2 12 2C15.866 2 19 5.13401 19 9V11.9609C19 13.2665 19.5187 14.5187 20.4419 15.4419C20.7992 15.7992 21 16.2839 21 16.7893V17.6623C21 18.4011 20.4011 19 19.6623 19H15.937C15.937 19.3646 15.9295 20.1575 15.5048 20.9285C14.827 22.159 13.5131 23 12 23C10.4869 23 9.17297 22.159 8.49515 20.9285C8.07046 20.1575 8.06299 19.3646 8.06299 19ZM17 11.9609C17 13.7839 17.719 15.5327 19 16.8283V17H5V16.8283C6.28099 15.5327 7 13.7839 7 11.9609V9C7 6.23858 9.23858 4 12 4C14.7614 4 17 6.23858 17 9V11.9609ZM13.937 19H10.063C10.063 19.332 10.0868 19.6728 10.247 19.9636C10.5863 20.5796 11.2409 20.9975 11.9933 21H12H12.0066C12.7591 20.9975 13.4137 20.5796 13.753 19.9636C13.9132 19.6728 13.937 19.332 13.937 19Z" fill="#6C737F"/>
</svg>
