<svg width="24" height="24" viewBox="0 0 24 24" fill="none" xmlns="http://www.w3.org/2000/svg">
<path d="M19.6818 2.39774C20.2121 1.86743 21.072 1.86741 21.6023 2.39774C22.1326 2.92805 22.1326 3.78788 21.6023 4.31819L13.9204 12.0001L21.6023 19.6818C22.1326 20.2121 22.1326 21.072 21.6023 21.6023C21.072 22.1326 20.2121 22.1326 19.6818 21.6023L12 13.9205L4.31821 21.6023C4.30991 21.6106 4.30155 21.6187 4.2931 21.6267C3.76109 22.1324 2.91978 22.1243 2.39775 21.6023C2.00001 21.2045 1.90057 20.6214 2.09944 20.1311C2.16572 19.9676 2.26517 19.8144 2.39775 19.6818L10.0795 12.0001L2.39775 4.31826C1.86742 3.78795 1.86742 2.92812 2.39775 2.39781C2.92806 1.86748 3.78788 1.86748 4.3182 2.39781L12 10.0795L19.6818 2.39774Z" fill="#6C737F"/>
</svg>
